<svg width="108" height="150" viewBox="0 0 108 150" fill="none" xmlns="http://www.w3.org/2000/svg">
<rect x="2.5" y="2.5" width="103" height="145" fill="white"/>
<rect x="2.5" y="2.5" width="103" height="145" stroke="#C5C7C8" stroke-width="5"/>
<path d="M17 67H26V76H17V67ZM35 85V94H74V85H35ZM35 112H92V103H35V112ZM35 130H83V121H35V130ZM17 94H26V85H17V94ZM17 130H26V121H17V130ZM17 112H26V103H17V112ZM35 76H92V67H35V76ZM40.2 29C39.9 28.8 39.6 28.6 39.2 28.5C38.8 28.4 38.4 28.3 37.9 28.3H35.3V33.8H37.9C38.4 33.8 38.9 33.8 39.2 33.6C39.5 33.4 39.9 33.3 40.2 33.1C40.5 32.9 40.7 32.6 40.9 32.3C41.1 32 41.1 31.6 41.1 31.2C41.1 30.7 41.1 30.3 40.9 30C40.7 29.7 40.5 29.4 40.2 29.2V29ZM57.4 29.9C57 29.4 56.4 29 55.8 28.8C55.1 28.5 54.3 28.4 53.4 28.4H50.7V39.9H53.4C54.3 39.9 55.1 39.8 55.8 39.5C56.5 39.2 57 38.8 57.4 38.4C57.8 37.9 58.1 37.3 58.3 36.7C58.5 36 58.6 35.3 58.6 34.6V33.9C58.6 33.1 58.6 32.4 58.3 31.8C58.1 31.2 57.8 30.6 57.4 30.1V29.9ZM92 20V47H17V20H92ZM44.8 31C44.8 30.1 44.7 29.4 44.4 28.6C44.1 27.9 43.7 27.2 43.2 26.7C42.7 26.2 42 25.7 41.3 25.5C40.5 25.2 39.7 25 38.8 25H31.6V42.9H35.2V36.9H38.4C39.3 36.9 40.2 36.8 41 36.4C41.8 36.1 42.4 35.7 43 35.2C43.5 34.7 44 34 44.3 33.3C44.6 32.6 44.8 31.8 44.8 30.9V31ZM62.4 34C62.4 32.7 62.2 31.4 61.9 30.3C61.6 29.2 61 28.3 60.3 27.5C59.6 26.7 58.7 26.1 57.6 25.7C56.5 25.3 55.3 25.1 53.8 25.1H47.2V43H53.8C55.3 43 56.5 42.8 57.6 42.4C58.7 42 59.6 41.4 60.3 40.6C61 39.8 61.6 38.9 61.9 37.8C62.3 36.7 62.4 35.5 62.4 34.1V34ZM77.4 25.1H65.3V43H68.9V35.5H76.7V32.2H68.9V28.4H77.3V25.1H77.4Z" fill="#B1B4B6" stroke="#B1B4B6"/>
</svg>
