<svg width="88" height="123" viewBox="0 0 88 123" fill="none" xmlns="http://www.w3.org/2000/svg">
<rect x="2.5" y="2.5" width="83" height="118" fill="white"/>
<rect x="2.5" y="2.5" width="83" height="118" stroke="#7C8387" stroke-width="5"/>
<g filter="url(#filter0_d_48_13)">
<rect width="78" height="113" transform="translate(5 5)" fill="white"/>
</g>
<path d="M15 55.3182H21.96V62.2727H15V55.3182ZM28.92 69.2273V76.1818H59.08V69.2273H28.92ZM28.92 90.0909H73V83.1364H28.92V90.0909ZM28.92 104H66.04V97.0455H28.92V104ZM15 76.1818H21.96V69.2273H15V76.1818ZM15 104H21.96V97.0455H15V104ZM15 90.0909H21.96V83.1364H15V90.0909ZM28.92 62.2727H73V55.3182H28.92V62.2727ZM32.9413 25.9545C32.7093 25.8 32.4773 25.6455 32.168 25.5682C31.8587 25.4909 31.5493 25.4136 31.1627 25.4136H29.152L33.792 24.1773L34.7259 29.2773C35.1126 29.2773 31.936 29.6636 32.168 29.5091C32.4 29.3545 32.7093 29.2773 32.9413 29.1227C33.1733 28.9682 33.328 28.7364 33.4827 28.5045C33.6373 28.2727 33.6373 27.9636 33.6373 27.6545C33.6373 27.2682 33.6373 26.9591 33.4827 26.7273C33.328 26.4955 33.1733 26.2636 32.9413 26.1091V25.9545ZM46.2427 26.65C45.9333 26.2636 45.4693 25.9545 45.0053 25.8C44.464 25.5682 52.196 28.1182 51.5 28.1182L48.4853 34.9182L41.0613 34.3773H43.1493C43.8453 34.3773 44.464 34.3 45.0053 34.0682C45.5467 33.8364 45.9333 33.5273 46.2427 33.2182C46.552 32.8318 46.784 32.3682 46.9387 31.9045C47.0933 31.3636 47.1707 30.8227 47.1707 30.2818V29.7409C47.1707 29.1227 47.1707 28.5818 46.9387 28.1182C46.784 27.6545 46.552 27.1909 46.2427 26.8045V26.65ZM73 19V39.8636H15V19H73ZM36.4987 27.5C36.4987 26.8045 36.4213 26.2636 36.1893 25.6455C35.9573 25.1045 35.648 24.5636 35.2613 24.1773C34.8747 23.7909 34.3333 23.4045 33.792 23.25C33.1733 23.0182 68.696 22.9409 68 22.9409V37.5L49.7227 38L26.2907 36.6955H29.0747V32.0591H31.5493C32.2453 32.0591 32.9413 31.9818 33.56 31.6727C34.1787 31.4409 34.6427 31.1318 35.1067 30.7455C35.4933 30.3591 35.88 29.8182 36.112 29.2773C36.344 28.7364 36.4987 28.1182 36.4987 27.4227V27.5ZM50.1093 29.8182C50.1093 28.8136 49.9547 27.8091 49.7227 26.9591C49.4907 26.1091 49.0267 25.4136 48.4853 24.7955C47.944 24.1773 47.248 23.7136 46.3973 23.4045C45.5467 23.0955 44.6187 22.9409 43.4587 22.9409H38.3547V36.7727H43.4587C44.6187 36.7727 45.5467 36.6182 46.3973 36.3091C47.248 36 47.944 35.5364 48.4853 34.9182C49.0267 34.3 49.4907 33.6045 49.7227 32.7545C50.032 31.9045 50.1093 30.9773 50.1093 29.8955V29.8182ZM61.7093 22.9409H52.352V36.7727H55.136V30.9773H61.168V28.4273H55.136V25.4909H61.632V22.9409H61.7093Z" fill="#7C8387"/>
<path d="M48.4853 34.9182L51.5 28.1182C52.196 28.1182 44.464 25.5682 45.0053 25.8C45.4693 25.9545 45.9333 26.2636 46.2427 26.65V26.8045C46.552 27.1909 46.784 27.6545 46.9387 28.1182C47.1707 28.5818 47.1707 29.1227 47.1707 29.7409V30.2818C47.1707 30.8227 47.0933 31.3636 46.9387 31.9045C46.784 32.3682 46.552 32.8318 46.2427 33.2182C45.9333 33.5273 45.5467 33.8364 45.0053 34.0682C44.464 34.3 43.8453 34.3773 43.1493 34.3773H41.0613L48.4853 34.9182ZM48.4853 34.9182C47.944 35.5364 47.248 36 46.3973 36.3091C45.5467 36.6182 44.6187 36.7727 43.4587 36.7727H38.3547V22.9409H43.4587C44.6187 22.9409 45.5467 23.0955 46.3973 23.4045C47.248 23.7136 47.944 24.1773 48.4853 24.7955C49.0267 25.4136 49.4907 26.1091 49.7227 26.9591C49.9547 27.8091 50.1093 28.8136 50.1093 29.8182V29.8955C50.1093 30.9773 50.032 31.9045 49.7227 32.7545C49.4907 33.6045 49.0267 34.3 48.4853 34.9182ZM15 55.3182H21.96V62.2727H15V55.3182ZM28.92 69.2273V76.1818H59.08V69.2273H28.92ZM28.92 90.0909H73V83.1364H28.92V90.0909ZM28.92 104H66.04V97.0455H28.92V104ZM15 76.1818H21.96V69.2273H15V76.1818ZM15 104H21.96V97.0455H15V104ZM15 90.0909H21.96V83.1364H15V90.0909ZM28.92 62.2727H73V55.3182H28.92V62.2727ZM32.9413 25.9545C32.7093 25.8 32.4773 25.6455 32.168 25.5682C31.8587 25.4909 31.5493 25.4136 31.1627 25.4136H29.152L33.792 24.1773L34.7259 29.2773C35.1126 29.2773 31.936 29.6636 32.168 29.5091C32.4 29.3545 32.7093 29.2773 32.9413 29.1227C33.1733 28.9682 33.328 28.7364 33.4827 28.5045C33.6373 28.2727 33.6373 27.9636 33.6373 27.6545C33.6373 27.2682 33.6373 26.9591 33.4827 26.7273C33.328 26.4955 33.1733 26.2636 32.9413 26.1091V25.9545ZM73 19V39.8636H15V19H73ZM36.4987 27.5C36.4987 26.8045 36.4213 26.2636 36.1893 25.6455C35.9573 25.1045 35.648 24.5636 35.2613 24.1773C34.8747 23.7909 34.3333 23.4045 33.792 23.25C33.1733 23.0182 68.696 22.9409 68 22.9409V37.5L49.7227 38L26.2907 36.6955H29.0747V32.0591H31.5493C32.2453 32.0591 32.9413 31.9818 33.56 31.6727C34.1787 31.4409 34.6427 31.1318 35.1067 30.7455C35.4933 30.3591 35.88 29.8182 36.112 29.2773C36.344 28.7364 36.4987 28.1182 36.4987 27.4227V27.5ZM61.7093 22.9409H52.352V36.7727H55.136V30.9773H61.168V28.4273H55.136V25.4909H61.632V22.9409H61.7093Z" stroke="#7C8387"/>
<defs>
<filter id="filter0_d_48_13" x="3" y="5" width="82" height="117" filterUnits="userSpaceOnUse" color-interpolation-filters="sRGB">
<feFlood flood-opacity="0" result="BackgroundImageFix"/>
<feColorMatrix in="SourceAlpha" type="matrix" values="0 0 0 0 0 0 0 0 0 0 0 0 0 0 0 0 0 0 127 0" result="hardAlpha"/>
<feOffset dy="2"/>
<feGaussianBlur stdDeviation="1"/>
<feComposite in2="hardAlpha" operator="out"/>
<feColorMatrix type="matrix" values="0 0 0 0 0.0431373 0 0 0 0 0.0470588 0 0 0 0 0.0470588 0 0 0 0.1 0"/>
<feBlend mode="normal" in2="BackgroundImageFix" result="effect1_dropShadow_48_13"/>
<feBlend mode="normal" in="SourceGraphic" in2="effect1_dropShadow_48_13" result="shape"/>
</filter>
</defs>
</svg>
